<svg width="20" height="20" viewBox="0 0 20 20" fill="none" xmlns="http://www.w3.org/2000/svg">
<path d="M14.1145 12.9272C15.261 11.2756 15.7745 9.22795 15.5523 7.19385C15.33 5.15975 14.3885 3.28923 12.9161 1.95652C11.4436 0.623812 9.54882 -0.0728086 7.61074 0.00602988C5.67267 0.0848684 3.83426 0.933352 2.46331 2.38173C1.09236 3.83011 0.289974 5.77156 0.216683 7.81768C0.143393 9.8638 0.804601 11.8637 2.06802 13.4172C3.33145 14.9708 5.10391 15.9634 7.03081 16.1966C8.95771 16.4297 10.8969 15.8861 12.4605 14.6746H12.4593C12.4949 14.7246 12.5327 14.7721 12.5754 14.8184L17.1337 19.6307C17.3557 19.8652 17.6569 19.9971 17.9709 19.9972C18.285 19.9973 18.5863 19.8657 18.8084 19.6313C19.0306 19.3969 19.1555 19.079 19.1556 18.7474C19.1557 18.4158 19.031 18.0978 18.809 17.8633L14.2507 13.0509C14.2084 13.0057 14.1629 12.9639 14.1145 12.9259V12.9272ZM14.42 8.12238C14.42 9.02518 14.2516 9.91915 13.9243 10.7532C13.5971 11.5873 13.1174 12.3452 12.5127 12.9836C11.908 13.6219 11.1902 14.1283 10.4001 14.4738C9.61005 14.8193 8.76327 14.9971 7.90812 14.9971C7.05296 14.9971 6.20618 14.8193 5.41612 14.4738C4.62606 14.1283 3.9082 13.6219 3.30351 12.9836C2.69883 12.3452 2.21917 11.5873 1.89191 10.7532C1.56466 9.91915 1.39623 9.02518 1.39623 8.12238C1.39623 6.29908 2.0823 4.55047 3.30351 3.2612C4.52473 1.97194 6.18106 1.24764 7.90812 1.24764C9.63518 1.24764 11.2915 1.97194 12.5127 3.2612C13.7339 4.55047 14.42 6.29908 14.42 8.12238Z" fill="white"/>
</svg>
 