<svg width="20" height="20" viewBox="0 0 20 20" fill="none" xmlns="http://www.w3.org/2000/svg">
<path d="M9.95714 0C4.72847 0 0.494385 4.48 0.494385 10C0.494385 15.52 4.72847 20 9.95714 20C15.1953 20 19.4388 15.52 19.4388 10C19.4388 4.48 15.1953 0 9.95714 0ZM16.5214 6H13.7271C13.4306 4.76146 12.9916 3.5659 12.4199 2.44C14.1478 3.068 15.6037 4.33172 16.5214 6ZM9.96661 2.04C10.7528 3.24 11.3685 4.57 11.7758 6H8.15742C8.56472 4.57 9.18042 3.24 9.96661 2.04ZM2.63511 12C2.48355 11.36 2.38883 10.69 2.38883 10C2.38883 9.31 2.48355 8.64 2.63511 8H5.83672C5.76094 8.66 5.70411 9.32 5.70411 10C5.70411 10.68 5.76094 11.34 5.83672 12H2.63511ZM3.41183 14H6.20614C6.50925 15.25 6.94497 16.45 7.51331 17.56C5.78365 16.9354 4.32669 15.6708 3.41183 14ZM6.20614 6H3.41183C4.32669 4.32918 5.78365 3.06457 7.51331 2.44C6.94159 3.5659 6.5026 4.76146 6.20614 6ZM9.96661 17.96C9.18042 16.76 8.56472 15.43 8.15742 14H11.7758C11.3685 15.43 10.7528 16.76 9.96661 17.96ZM12.1831 12H7.75011C7.66486 11.34 7.59856 10.68 7.59856 10C7.59856 9.32 7.66486 8.65 7.75011 8H12.1831C12.2684 8.65 12.3347 9.32 12.3347 10C12.3347 10.68 12.2684 11.34 12.1831 12ZM12.4199 17.56C12.9883 16.45 13.424 15.25 13.7271 14H16.5214C15.6037 15.6683 14.1478 16.932 12.4199 17.56ZM14.0965 12C14.1723 11.34 14.2291 10.68 14.2291 10C14.2291 9.32 14.1723 8.66 14.0965 8H17.2981C17.4497 8.64 17.5444 9.31 17.5444 10C17.5444 10.69 17.4497 11.36 17.2981 12H14.0965Z" fill="#464646"/>
</svg>
 